<?xml version="1.0" standalone="no"?>
<!DOCTYPE svg PUBLIC "-//W3C//DTD SVG 20010904//EN"
  "http://www.w3.org/TR/2001/REC-SVG-20010904/DTD/svg10.dtd">
<svg width="16" height="13">
  <circle cx="0" cy="0" r="1" fill="white"/>
  <circle cx="1" cy="0" r="1" fill="white"/>
  <circle cx="2" cy="0" r="1" fill="white"/>
  <circle cx="3" cy="0" r="1" fill="white"/>
  <circle cx="4" cy="0" r="1" fill="white"/>
  <circle cx="5" cy="0" r="1" fill="white"/>
  <circle cx="6" cy="0" r="1" fill="white"/>
  <circle cx="7" cy="0" r="1" fill="white"/>
  <circle cx="8" cy="0" r="1" fill="white"/>
  <circle cx="9" cy="0" r="1" fill="white"/>
  <circle cx="10" cy="0" r="1" fill="white"/>
  <circle cx="11" cy="0" r="1" fill="white"/>
  <circle cx="12" cy="0" r="1" fill="white"/>
  <circle cx="13" cy="0" r="1" fill="white"/>
  <circle cx="14" cy="0" r="1" fill="white"/>
  <circle cx="15" cy="0" r="1" fill="white"/>
  <circle cx="0" cy="1" r="1" fill="white"/>
  <circle cx="1" cy="1" r="1" fill="white"/>
  <circle cx="2" cy="1" r="1" fill="white"/>
  <circle cx="3" cy="1" r="1" fill="white"/>
  <circle cx="4" cy="1" r="1" fill="rgba(98.1033%,97.908%,97.6547%,1)"/>
  <circle cx="5" cy="1" r="1" fill="rgba(78.4771%,82.5299%,86.6102%,1)"/>
  <circle cx="6" cy="1" r="1" fill="rgba(58.5229%,69.8344%,81.2375%,1)"/>
  <circle cx="7" cy="1" r="1" fill="rgba(60.4837%,70.988%,81.5747%,1)"/>
  <circle cx="8" cy="1" r="1" fill="rgba(82.4552%,85.3529%,88.2612%,1)"/>
  <circle cx="9" cy="1" r="1" fill="rgba(99.1318%,98.8983%,98.6114%,1)"/>
  <circle cx="10" cy="1" r="1" fill="white"/>
  <circle cx="11" cy="1" r="1" fill="white"/>
  <circle cx="12" cy="1" r="1" fill="white"/>
  <circle cx="13" cy="1" r="1" fill="white"/>
  <circle cx="14" cy="1" r="1" fill="white"/>
  <circle cx="15" cy="1" r="1" fill="white"/>
  <circle cx="0" cy="2" r="1" fill="white"/>
  <circle cx="1" cy="2" r="1" fill="white"/>
  <circle cx="2" cy="2" r="1" fill="white"/>
  <circle cx="3" cy="2" r="1" fill="rgba(97.6867%,97.4151%,97.1389%,1)"/>
  <circle cx="4" cy="2" r="1" fill="rgba(51.7266%,65.2552%,78.8876%,1)"/>
  <circle cx="5" cy="2" r="1" fill="rgba(6.87266%,46.4302%,86.3127%,1)"/>
  <circle cx="6" cy="2" r="1" fill="rgba(0%,47.5654%,96.2387%,1)"/>
  <circle cx="7" cy="2" r="1" fill="rgba(0.09308%,47.3838%,95.5535%,1)"/>
  <circle cx="8" cy="2" r="1" fill="rgba(10.2647%,47.0344%,84.0864%,1)"/>
  <circle cx="9" cy="2" r="1" fill="rgba(60.885%,70.7546%,80.6973%,1)"/>
  <circle cx="10" cy="2" r="1" fill="rgba(99.4797%,99.0799%,98.674%,1)"/>
  <circle cx="11" cy="2" r="1" fill="white"/>
  <circle cx="12" cy="2" r="1" fill="white"/>
  <circle cx="13" cy="2" r="1" fill="white"/>
  <circle cx="14" cy="2" r="1" fill="white"/>
  <circle cx="15" cy="2" r="1" fill="white"/>
  <circle cx="0" cy="3" r="1" fill="white"/>
  <circle cx="1" cy="3" r="1" fill="white"/>
  <circle cx="2" cy="3" r="1" fill="white"/>
  <circle cx="3" cy="3" r="1" fill="rgba(71.9799%,77.9553%,83.9857%,1)"/>
  <circle cx="4" cy="3" r="1" fill="rgba(5.13619%,45.8717%,87.6204%,1)"/>
  <circle cx="5" cy="3" r="1" fill="rgba(0%,48.2444%,97.1847%,1)"/>
  <circle cx="6" cy="3" r="1" fill="rgba(0%,31.5801%,63.3875%,1)"/>
  <circle cx="7" cy="3" r="1" fill="rgba(0%,32.6833%,65.5909%,1)"/>
  <circle cx="8" cy="3" r="1" fill="rgba(0%,48.4398%,98.0194%,1)"/>
  <circle cx="9" cy="3" r="1" fill="rgba(10.4097%,46.7567%,84.0116%,1)"/>
  <circle cx="10" cy="3" r="1" fill="rgba(81.3901%,84.4938%,87.6051%,1)"/>
  <circle cx="11" cy="3" r="1" fill="white"/>
  <circle cx="12" cy="3" r="1" fill="white"/>
  <circle cx="13" cy="3" r="1" fill="white"/>
  <circle cx="14" cy="3" r="1" fill="white"/>
  <circle cx="15" cy="3" r="1" fill="white"/>
  <circle cx="0" cy="4" r="1" fill="white"/>
  <circle cx="1" cy="4" r="1" fill="white"/>
  <circle cx="2" cy="4" r="1" fill="rgba(100%,100%,99.5789%,1)"/>
  <circle cx="3" cy="4" r="1" fill="rgba(48.3604%,63.505%,79.0112%,1)"/>
  <circle cx="4" cy="4" r="1" fill="rgba(0%,48.1209%,97.9477%,1)"/>
  <circle cx="5" cy="4" r="1" fill="rgba(0%,39.704%,79.7147%,1)"/>
  <circle cx="6" cy="4" r="1" fill="rgba(0%,3.0396%,6.10513%,1)"/>
  <circle cx="7" cy="4" r="1" fill="rgba(0%,4.45411%,8.94331%,1)"/>
  <circle cx="8" cy="4" r="1" fill="rgba(0%,41.8219%,83.9765%,1)"/>
  <circle cx="9" cy="4" r="1" fill="rgba(0%,47.1061%,94.6777%,1)"/>
  <circle cx="10" cy="4" r="1" fill="rgba(60.6699%,70.6645%,80.9522%,1)"/>
  <circle cx="11" cy="4" r="1" fill="white"/>
  <circle cx="12" cy="4" r="1" fill="white"/>
  <circle cx="13" cy="4" r="1" fill="white"/>
  <circle cx="14" cy="4" r="1" fill="white"/>
  <circle cx="15" cy="4" r="1" fill="white"/>
  <circle cx="0" cy="5" r="1" fill="white"/>
  <circle cx="1" cy="5" r="1" fill="white"/>
  <circle cx="2" cy="5" r="1" fill="rgba(100%,100%,99.8306%,1)"/>
  <circle cx="3" cy="5" r="1" fill="rgba(51.8669%,65.4734%,79.3866%,1)"/>
  <circle cx="4" cy="5" r="1" fill="rgba(0%,47.3838%,96.1166%,1)"/>
  <circle cx="5" cy="5" r="1" fill="rgba(0%,45.8854%,92.1263%,1)"/>
  <circle cx="6" cy="5" r="1" fill="rgba(0%,20.2106%,40.5798%,1)"/>
  <circle cx="7" cy="5" r="1" fill="rgba(0%,21.6373%,43.447%,1)"/>
  <circle cx="8" cy="5" r="1" fill="rgba(0%,46.9581%,94.3267%,1)"/>
  <circle cx="9" cy="5" r="1" fill="rgba(0.762951%,46.5385%,92.6787%,1)"/>
  <circle cx="10" cy="5" r="1" fill="rgba(64.0223%,72.7611%,81.7166%,1)"/>
  <circle cx="11" cy="5" r="1" fill="white"/>
  <circle cx="12" cy="5" r="1" fill="white"/>
  <circle cx="13" cy="5" r="1" fill="white"/>
  <circle cx="14" cy="5" r="1" fill="white"/>
  <circle cx="15" cy="5" r="1" fill="white"/>
  <circle cx="0" cy="6" r="1" fill="white"/>
  <circle cx="1" cy="6" r="1" fill="white"/>
  <circle cx="2" cy="6" r="1" fill="white"/>
  <circle cx="3" cy="6" r="1" fill="rgba(79.823%,83.299%,86.8238%,1)"/>
  <circle cx="4" cy="6" r="1" fill="rgba(9.65591%,46.8513%,84.6372%,1)"/>
  <circle cx="5" cy="6" r="1" fill="rgba(0%,49.9886%,100%,1)"/>
  <circle cx="6" cy="6" r="1" fill="rgba(0%,49.3217%,98.645%,1)"/>
  <circle cx="7" cy="6" r="1" fill="rgba(0%,49.4194%,98.7961%,1)"/>
  <circle cx="8" cy="6" r="1" fill="rgba(0%,49.6376%,100%,1)"/>
  <circle cx="9" cy="6" r="1" fill="rgba(16.2158%,48.6244%,81.5976%,1)"/>
  <circle cx="10" cy="6" r="1" fill="rgba(87.5975%,89.0135%,90.4433%,1)"/>
  <circle cx="11" cy="6" r="1" fill="white"/>
  <circle cx="12" cy="6" r="1" fill="white"/>
  <circle cx="13" cy="6" r="1" fill="white"/>
  <circle cx="14" cy="6" r="1" fill="white"/>
  <circle cx="15" cy="6" r="1" fill="white"/>
  <circle cx="0" cy="7" r="1" fill="white"/>
  <circle cx="1" cy="7" r="1" fill="white"/>
  <circle cx="2" cy="7" r="1" fill="white"/>
  <circle cx="3" cy="7" r="1" fill="rgba(99.5087%,98.9181%,98.3093%,1)"/>
  <circle cx="4" cy="7" r="1" fill="rgba(49.1752%,63.6423%,78.3474%,1)"/>
  <circle cx="5" cy="7" r="1" fill="rgba(0.355535%,46.8879%,93.9132%,1)"/>
  <circle cx="6" cy="7" r="1" fill="rgba(0%,49.9977%,100%,1)"/>
  <circle cx="7" cy="7" r="1" fill="rgba(0%,50.0084%,100%,1)"/>
  <circle cx="8" cy="7" r="1" fill="rgba(2.20798%,46.3752%,91.0811%,1)"/>
  <circle cx="9" cy="7" r="1" fill="rgba(58.9807%,69.3965%,79.968%,1)"/>
  <circle cx="10" cy="7" r="1" fill="rgba(100%,100%,99.4827%,1)"/>
  <circle cx="11" cy="7" r="1" fill="white"/>
  <circle cx="12" cy="7" r="1" fill="white"/>
  <circle cx="13" cy="7" r="1" fill="white"/>
  <circle cx="14" cy="7" r="1" fill="white"/>
  <circle cx="15" cy="7" r="1" fill="white"/>
  <circle cx="0" cy="8" r="1" fill="white"/>
  <circle cx="1" cy="8" r="1" fill="white"/>
  <circle cx="2" cy="8" r="1" fill="white"/>
  <circle cx="3" cy="8" r="1" fill="white"/>
  <circle cx="4" cy="8" r="1" fill="rgba(91.0475%,91.5984%,92.1248%,1)"/>
  <circle cx="5" cy="8" r="1" fill="rgba(23.9887%,51.4397%,79.3027%,1)"/>
  <circle cx="6" cy="8" r="1" fill="rgba(0%,48.9601%,99.2706%,1)"/>
  <circle cx="7" cy="8" r="1" fill="rgba(0%,48.2628%,97.847%,1)"/>
  <circle cx="8" cy="8" r="1" fill="rgba(32.6513%,55.1629%,78.0301%,1)"/>
  <circle cx="9" cy="8" r="1" fill="rgba(95.2193%,95.0347%,94.818%,1)"/>
  <circle cx="10" cy="8" r="1" fill="white"/>
  <circle cx="11" cy="8" r="1" fill="white"/>
  <circle cx="12" cy="8" r="1" fill="white"/>
  <circle cx="13" cy="8" r="1" fill="white"/>
  <circle cx="14" cy="8" r="1" fill="white"/>
  <circle cx="15" cy="8" r="1" fill="white"/>
  <circle cx="0" cy="9" r="1" fill="white"/>
  <circle cx="1" cy="9" r="1" fill="white"/>
  <circle cx="2" cy="9" r="1" fill="white"/>
  <circle cx="3" cy="9" r="1" fill="white"/>
  <circle cx="4" cy="9" r="1" fill="white"/>
  <circle cx="5" cy="9" r="1" fill="rgba(69.5064%,76.0189%,82.6307%,1)"/>
  <circle cx="6" cy="9" r="1" fill="rgba(3.92309%,46.45%,89.2775%,1)"/>
  <circle cx="7" cy="9" r="1" fill="rgba(8.59998%,47.1153%,85.9617%,1)"/>
  <circle cx="8" cy="9" r="1" fill="rgba(78.2147%,81.9608%,85.7557%,1)"/>
  <circle cx="9" cy="9" r="1" fill="white"/>
  <circle cx="10" cy="9" r="1" fill="white"/>
  <circle cx="11" cy="9" r="1" fill="white"/>
  <circle cx="12" cy="9" r="1" fill="white"/>
  <circle cx="13" cy="9" r="1" fill="white"/>
  <circle cx="14" cy="9" r="1" fill="white"/>
  <circle cx="15" cy="9" r="1" fill="white"/>
  <circle cx="0" cy="10" r="1" fill="white"/>
  <circle cx="1" cy="10" r="1" fill="white"/>
  <circle cx="2" cy="10" r="1" fill="white"/>
  <circle cx="3" cy="10" r="1" fill="white"/>
  <circle cx="4" cy="10" r="1" fill="white"/>
  <circle cx="5" cy="10" r="1" fill="rgba(95.9777%,95.6237%,95.2605%,1)"/>
  <circle cx="6" cy="10" r="1" fill="rgba(27.6631%,51.957%,76.5484%,1)"/>
  <circle cx="7" cy="10" r="1" fill="rgba(37.7859%,57.4746%,77.4044%,1)"/>
  <circle cx="8" cy="10" r="1" fill="rgba(98.9166%,98.2132%,97.4975%,1)"/>
  <circle cx="9" cy="10" r="1" fill="white"/>
  <circle cx="10" cy="10" r="1" fill="white"/>
  <circle cx="11" cy="10" r="1" fill="white"/>
  <circle cx="12" cy="10" r="1" fill="white"/>
  <circle cx="13" cy="10" r="1" fill="white"/>
  <circle cx="14" cy="10" r="1" fill="white"/>
  <circle cx="15" cy="10" r="1" fill="white"/>
  <circle cx="0" cy="11" r="1" fill="white"/>
  <circle cx="1" cy="11" r="1" fill="white"/>
  <circle cx="2" cy="11" r="1" fill="white"/>
  <circle cx="3" cy="11" r="1" fill="white"/>
  <circle cx="4" cy="11" r="1" fill="white"/>
  <circle cx="5" cy="11" r="1" fill="white"/>
  <circle cx="6" cy="11" r="1" fill="rgba(61.6938%,67.2694%,72.9671%,1)"/>
  <circle cx="7" cy="11" r="1" fill="rgba(69.6666%,73.9284%,78.2834%,1)"/>
  <circle cx="8" cy="11" r="1" fill="white"/>
  <circle cx="9" cy="11" r="1" fill="white"/>
  <circle cx="10" cy="11" r="1" fill="white"/>
  <circle cx="11" cy="11" r="1" fill="white"/>
  <circle cx="12" cy="11" r="1" fill="white"/>
  <circle cx="13" cy="11" r="1" fill="white"/>
  <circle cx="14" cy="11" r="1" fill="white"/>
  <circle cx="15" cy="11" r="1" fill="white"/>
  <circle cx="0" cy="12" r="1" fill="white"/>
  <circle cx="1" cy="12" r="1" fill="white"/>
  <circle cx="2" cy="12" r="1" fill="white"/>
  <circle cx="3" cy="12" r="1" fill="white"/>
  <circle cx="4" cy="12" r="1" fill="white"/>
  <circle cx="5" cy="12" r="1" fill="white"/>
  <circle cx="6" cy="12" r="1" fill="rgba(88.0598%,87.892%,87.7211%,1)"/>
  <circle cx="7" cy="12" r="1" fill="rgba(90.7439%,90.6126%,90.4814%,1)"/>
  <circle cx="8" cy="12" r="1" fill="white"/>
  <circle cx="9" cy="12" r="1" fill="white"/>
  <circle cx="10" cy="12" r="1" fill="white"/>
  <circle cx="11" cy="12" r="1" fill="white"/>
  <circle cx="12" cy="12" r="1" fill="white"/>
  <circle cx="13" cy="12" r="1" fill="white"/>
  <circle cx="14" cy="12" r="1" fill="white"/>
  <circle cx="15" cy="12" r="1" fill="white"/>
</svg>
